<svg width="14" height="24" viewBox="0 0 14 24" fill="none" xmlns="http://www.w3.org/2000/svg">
<path d="M13.6958 17.5853L7.50229 23.7972C7.42856 23.871 7.34868 23.9233 7.26266 23.9543C7.17664 23.9852 7.08448 24.0005 6.98617 24C6.88786 24 6.79569 23.9845 6.70967 23.9535C6.62365 23.9226 6.54377 23.8705 6.47004 23.7972L0.258064 17.5853C0.086021 17.4132 -2.97318e-07 17.1982 -3.08598e-07 16.9401C-3.19879e-07 16.682 0.0921654 16.4608 0.276497 16.2765C0.460828 16.0922 0.675882 16 0.921657 16C1.16743 16 1.38249 16.0922 1.56682 16.2765L6.98617 21.6958L12.4055 16.2765C12.5776 16.1045 12.7897 16.0184 13.0418 16.0184C13.294 16.0184 13.512 16.1106 13.6958 16.2949C13.8802 16.4793 13.9723 16.6943 13.9723 16.9401C13.9723 17.1859 13.8802 17.4009 13.6958 17.5853Z" fill="#A5A5A5"/>
<path d="M0.276456 6.41475L6.47 0.202777C6.54373 0.129044 6.62361 0.0766937 6.70963 0.045726C6.79565 0.0147583 6.88781 -0.00047972 6.98612 1.18261e-05C7.08443 1.18218e-05 7.1766 0.0154957 7.26262 0.0464634C7.34864 0.0774311 7.42852 0.129535 7.50225 0.202776L13.7142 6.41475C13.8863 6.58679 13.9723 6.80185 13.9723 7.05991C13.9723 7.31797 13.8801 7.53917 13.6958 7.7235C13.5115 7.90783 13.2964 8 13.0506 8C12.8049 8 12.5898 7.90783 12.4055 7.7235L6.98612 2.30416L1.56678 7.7235C1.39473 7.89555 1.18263 7.98157 0.930466 7.98157C0.6783 7.98157 0.460297 7.8894 0.276456 7.70507C0.0921253 7.52074 -4.06887e-05 7.30569 -4.06994e-05 7.05991C-4.07101e-05 6.81413 0.0921252 6.59908 0.276456 6.41475Z" fill="#A5A5A5"/>
</svg>
