<svg width="24" height="24" viewBox="0 0 24 24" fill="none" xmlns="http://www.w3.org/2000/svg">
<path d="M9 18C8.45 18 7.979 17.804 7.587 17.412C7.195 17.02 6.99934 16.5493 7 16V4C7 3.45 7.196 2.979 7.588 2.587C7.98 2.195 8.45067 1.99934 9 2H18C18.55 2 19.021 2.196 19.413 2.588C19.805 2.98 20.0007 3.45067 20 4V16C20 16.55 19.804 17.021 19.412 17.413C19.02 17.805 18.5493 18.0007 18 18H9ZM9 16H18V4H9V16ZM5 22C4.45 22 3.979 21.804 3.587 21.412C3.195 21.02 2.99934 20.5493 3 20V7C3 6.71667 3.096 6.479 3.288 6.287C3.48 6.095 3.71733 5.99934 4 6C4.28333 6 4.521 6.096 4.713 6.288C4.905 6.48 5.00067 6.71734 5 7V20H15C15.2833 20 15.521 20.096 15.713 20.288C15.905 20.48 16.0007 20.7173 16 21C16 21.2833 15.904 21.521 15.712 21.713C15.52 21.905 15.2827 22.0007 15 22H5Z" fill="white"/>
</svg>
