<svg width="24" height="24" viewBox="0 0 24 24" fill="none" xmlns="http://www.w3.org/2000/svg">
<path fill-rule="evenodd" clip-rule="evenodd" d="M16.47 3.47001C16.3296 3.61064 16.2507 3.80126 16.2507 4.00001C16.2507 4.19876 16.3296 4.38939 16.47 4.53001L18.19 6.25001H8.96405C8.06005 6.25001 7.33105 6.25001 6.74205 6.30301C6.13605 6.35801 5.60605 6.47501 5.12505 6.75301C4.5549 7.08192 4.08138 7.55511 3.75205 8.12501C3.47505 8.60601 3.35805 9.13601 3.30305 9.74201C3.25005 10.331 3.25005 11.06 3.25005 11.964V12.036C3.25005 12.94 3.25005 13.669 3.30305 14.258C3.35805 14.864 3.47405 15.394 3.75305 15.875C4.08196 16.4452 4.55515 16.9187 5.12505 17.248C5.60605 17.525 6.13605 17.642 6.74205 17.697C7.33105 17.75 8.06005 17.75 8.96405 17.75H16C16.199 17.75 16.3897 17.671 16.5304 17.5303C16.671 17.3897 16.75 17.1989 16.75 17C16.75 16.8011 16.671 16.6103 16.5304 16.4697C16.3897 16.329 16.199 16.25 16 16.25H9.00005C8.05205 16.25 7.39005 16.25 6.87805 16.203C6.37505 16.157 6.09005 16.073 5.87505 15.949C5.53279 15.7515 5.24859 15.4673 5.05105 15.125C4.92705 14.91 4.84305 14.625 4.79705 14.122C4.75105 13.61 4.75005 12.948 4.75005 12C4.75005 11.052 4.75005 10.39 4.79705 9.87801C4.84305 9.37501 4.92705 9.09001 5.05105 8.87501C5.24859 8.53275 5.53279 8.24855 5.87505 8.05101C6.09005 7.92701 6.37505 7.84301 6.87805 7.79701C7.39005 7.75101 8.05205 7.75001 9.00005 7.75001H18.19L16.47 9.47001C16.3964 9.53867 16.3373 9.62147 16.2963 9.71347C16.2553 9.80547 16.2332 9.90479 16.2315 10.0055C16.2297 10.1062 16.2482 10.2062 16.2859 10.2996C16.3236 10.393 16.3798 10.4778 16.451 10.549C16.5222 10.6203 16.6071 10.6764 16.7005 10.7141C16.7938 10.7519 16.8939 10.7704 16.9946 10.7686C17.0953 10.7668 17.1946 10.7448 17.2866 10.7038C17.3786 10.6628 17.4614 10.6037 17.53 10.53L20.53 7.53001C20.6705 7.38939 20.7494 7.19876 20.7494 7.00001C20.7494 6.80126 20.6705 6.61064 20.53 6.47001L17.53 3.47001C17.3894 3.32956 17.1988 3.25067 17 3.25067C16.8013 3.25067 16.6107 3.32956 16.47 3.47001Z" fill="#242424"/>
</svg>
