<svg width="24" height="24" viewBox="0 0 24 24" fill="none" xmlns="http://www.w3.org/2000/svg">
<path fill-rule="evenodd" clip-rule="evenodd" d="M7.52995 3.47001C7.6704 3.61064 7.74929 3.80126 7.74929 4.00001C7.74929 4.19876 7.6704 4.38939 7.52995 4.53001L5.80995 6.25001H15.036C15.94 6.25001 16.669 6.25001 17.2579 6.30301C17.8639 6.35801 18.394 6.47501 18.875 6.75301C19.4451 7.08192 19.9186 7.55511 20.2479 8.12501C20.525 8.60601 20.642 9.13601 20.697 9.74201C20.75 10.331 20.75 11.06 20.75 11.964V12.036C20.75 12.94 20.75 13.669 20.697 14.258C20.642 14.864 20.5259 15.394 20.247 15.875C19.918 16.4452 19.4449 16.9187 18.875 17.248C18.394 17.525 17.8639 17.642 17.2579 17.697C16.669 17.75 15.94 17.75 15.036 17.75H7.99995C7.80104 17.75 7.61027 17.671 7.46962 17.5303C7.32897 17.3897 7.24995 17.1989 7.24995 17C7.24995 16.8011 7.32897 16.6103 7.46962 16.4697C7.61027 16.329 7.80104 16.25 7.99995 16.25H15C15.948 16.25 16.61 16.25 17.122 16.203C17.625 16.157 17.91 16.073 18.125 15.949C18.4672 15.7515 18.7514 15.4673 18.9489 15.125C19.0729 14.91 19.1569 14.625 19.2029 14.122C19.2489 13.61 19.25 12.948 19.25 12C19.25 11.052 19.2499 10.39 19.2029 9.87801C19.1569 9.37501 19.0729 9.09001 18.9489 8.87501C18.7514 8.53275 18.4672 8.24855 18.125 8.05101C17.91 7.92701 17.625 7.84301 17.122 7.79701C16.61 7.75101 15.948 7.75001 15 7.75001H5.80995L7.52995 9.47001C7.60364 9.53867 7.66274 9.62147 7.70373 9.71347C7.74472 9.80547 7.76677 9.90479 7.76854 10.0055C7.77032 10.1062 7.75179 10.2062 7.71407 10.2996C7.67635 10.393 7.62021 10.4778 7.54899 10.549C7.47777 10.6203 7.39294 10.6764 7.29955 10.7141C7.20616 10.7519 7.10613 10.7704 7.00543 10.7686C6.90473 10.7668 6.80541 10.7448 6.71341 10.7038C6.62141 10.6628 6.53861 10.6037 6.46995 10.53L3.46995 7.53001C3.3295 7.38939 3.25061 7.19876 3.25061 7.00001C3.25061 6.80126 3.3295 6.61064 3.46995 6.47001L6.46995 3.47001C6.61058 3.32956 6.8012 3.25067 6.99995 3.25067C7.1987 3.25067 7.38933 3.32956 7.52995 3.47001Z" fill="#242424"/>
</svg>
