<svg width="14" height="8" viewBox="0 0 14 8" fill="none" xmlns="http://www.w3.org/2000/svg">
<path d="M13.6958 1.58525L7.50229 7.79722C7.42856 7.87096 7.34868 7.92331 7.26266 7.95427C7.17664 7.98524 7.08448 8.00048 6.98617 7.99999C6.88786 7.99999 6.79569 7.9845 6.70967 7.95354C6.62365 7.92257 6.54377 7.87046 6.47004 7.79722L0.258064 1.58525C0.086021 1.41321 -2.97318e-07 1.19815 -3.08598e-07 0.94009C-3.19879e-07 0.682026 0.0921654 0.460828 0.276497 0.276497C0.460828 0.0921653 0.675882 -2.95438e-08 0.921657 -4.02869e-08C1.16743 -5.10301e-08 1.38249 0.0921653 1.56682 0.276497L6.98617 5.69584L12.4055 0.276496C12.5776 0.104454 12.7897 0.0184321 13.0418 0.018432C13.294 0.018432 13.512 0.110598 13.6958 0.294929C13.8802 0.479261 13.9723 0.694314 13.9723 0.94009C13.9723 1.18586 13.8802 1.40092 13.6958 1.58525Z" fill="#A5A5A5"/>
</svg>
