<svg width="18" height="18" viewBox="0 0 18 18" fill="none" xmlns="http://www.w3.org/2000/svg">
<path d="M15.9999 10.1643H10.1666V15.9977C10.1666 16.3071 10.0437 16.6038 9.82488 16.8226C9.60608 17.0414 9.30934 17.1643 8.99992 17.1643C8.6905 17.1643 8.39375 17.0414 8.17496 16.8226C7.95617 16.6038 7.83325 16.3071 7.83325 15.9977V10.1643H1.99992C1.6905 10.1643 1.39375 10.0414 1.17496 9.82262C0.956169 9.60383 0.833252 9.30708 0.833252 8.99766C0.833252 8.68824 0.956169 8.39149 1.17496 8.1727C1.39375 7.95391 1.6905 7.83099 1.99992 7.83099H7.83325V1.99766C7.83325 1.68824 7.95617 1.39149 8.17496 1.1727C8.39375 0.95391 8.6905 0.830994 8.99992 0.830994C9.30934 0.830994 9.60608 0.95391 9.82488 1.1727C10.0437 1.39149 10.1666 1.68824 10.1666 1.99766V7.83099H15.9999C16.3093 7.83099 16.6061 7.95391 16.8249 8.1727C17.0437 8.39149 17.1666 8.68824 17.1666 8.99766C17.1666 9.30708 17.0437 9.60383 16.8249 9.82262C16.6061 10.0414 16.3093 10.1643 15.9999 10.1643Z" fill="white"/>
</svg>
